<svg xmlns="http://www.w3.org/2000/svg" id="Calque_2" data-name="Calque 2" viewBox="0 0 251.7 251.7">
  <defs>
    <linearGradient id="Dégradé_sans_nom_37" x1=".5" x2="251.2" y1="125.85" y2="125.85" data-name="Dégradé sans nom 37" gradientUnits="userSpaceOnUse">
      <stop offset="0" stop-color="#ef7e7c"/>
      <stop offset=".79" stop-color="#e6304e"/>
      <stop offset="1" stop-color="#d90d3a"/>
    </linearGradient>
    <style>
      .cls-2{fill:#fff;stroke:#000;stroke-miterlimit:10;stroke-width:2px}
    </style>
  </defs>
  <g id="Calque_2-2" data-name="Calque 2">
    <path d="M251.2 125.85c0 69.23-56.12 125.35-125.35 125.35S.5 195.08.5 125.85 56.62.5 125.85.5 251.2 56.62 251.2 125.85" style="fill:url(#Dégradé_sans_nom_37)"/>
    <path d="M125.85 251.7C56.46 251.7 0 195.25 0 125.85S56.46 0 125.85 0 251.7 56.46 251.7 125.85 195.24 251.7 125.85 251.7m0-250.7C57.01 1 1 57.01 1 125.85S57.01 250.7 125.85 250.7 250.7 194.69 250.7 125.85 194.7 1 125.85 1"/>
    <ellipse cx="125.85" cy="96.38" class="cls-2" rx="20.43" ry="67.66"/>
    <circle cx="125.85" cy="199.19" r="13.47" class="cls-2"/>
  </g>
</svg>
